<?xml version="1.0" encoding="UTF-8" standalone="no"?>
<svg
   xmlns:dc="http://purl.org/dc/elements/1.1/"
   xmlns:cc="http://creativecommons.org/ns#"
   xmlns:rdf="http://www.w3.org/1999/02/22-rdf-syntax-ns#"
   xmlns:svg="http://www.w3.org/2000/svg"
   xmlns="http://www.w3.org/2000/svg"
   xmlns:sodipodi="http://sodipodi.sourceforge.net/DTD/sodipodi-0.dtd"
   xmlns:inkscape="http://www.inkscape.org/namespaces/inkscape"
   viewBox="0 0 1705.3337 455.48303"
   height="455.48303"
   width="1705.3336"
   xml:space="preserve"
   id="svg2"
   version="1.1"
   sodipodi:docname="logo-p.svg"
   inkscape:version="0.92.4 5da689c313, 2019-01-14"><sodipodi:namedview
     pagecolor="#ffffff"
     bordercolor="#666666"
     borderopacity="1"
     objecttolerance="10"
     gridtolerance="10"
     guidetolerance="10"
     inkscape:pageopacity="0"
     inkscape:pageshadow="2"
     inkscape:window-width="1920"
     inkscape:window-height="1019"
     id="namedview26"
     showgrid="false"
     fit-margin-top="0"
     fit-margin-left="0"
     fit-margin-right="0"
     fit-margin-bottom="0"
     inkscape:zoom="0.16361641"
     inkscape:cx="173.58415"
     inkscape:cy="228.92361"
     inkscape:window-x="0"
     inkscape:window-y="32"
     inkscape:window-maximized="1"
     inkscape:current-layer="svg2" /><metadata
     id="metadata8"><rdf:RDF><cc:Work
         rdf:about=""><dc:format>image/svg+xml</dc:format><dc:type
           rdf:resource="http://purl.org/dc/dcmitype/StillImage" /><dc:title></dc:title></cc:Work></rdf:RDF></metadata><defs
     id="defs6"><clipPath
       id="clipPath22"
       clipPathUnits="userSpaceOnUse"><path
         id="path20"
         d="M 0,768 H 1366 V 0 H 0 Z"
         inkscape:connector-curvature="0" /></clipPath></defs><g
     transform="matrix(1.3333333,0,0,-1.3333333,-58.666399,738.55943)"
     id="g10"><text
   id="text14"
   style="font-style:italic;font-variant:normal;font-weight:normal;font-stretch:normal;font-size:81.97149658px;font-family:'Adobe Devanagari';-inkscape-font-specification:AdobeDevanagari-Italic;writing-mode:lr-tb;fill:#231f20;fill-opacity:1;fill-rule:nonzero;stroke:none"
   transform="matrix(1,0,0,-1,508.8057,488.3584)"><tspan
     id="tspan12"
     y="0"
     x="0 20.091215 55.273384 95.619751 134.16275 164.42664 195.24791 211.88814 248.85727 285.82642 322.79556">fondée 2020</tspan></text>

<g
   id="g16"><g
     clip-path="url(#clipPath22)"
     id="g18"><g
       transform="translate(324.5752,234.6855)"
       id="g24"><path
         id="path26"
         style="fill:#231f20;fill-opacity:1;fill-rule:nonzero;stroke:none"
         d="m 0,0 c 0,-3.292 1.542,-5.614 4.626,-6.978 3.073,-1.351 7.283,-2.033 12.62,-2.033 h 33.561 c 5.948,0 11.076,0.728 15.397,2.184 4.308,1.455 8.004,3.535 11.077,6.25 3.084,2.703 5.802,6.054 8.164,10.028 2.349,3.962 4.455,8.468 6.303,13.505 0.624,1.548 1.848,2.334 3.696,2.334 1.029,0 2.106,-0.254 3.232,-0.728 1.126,-0.485 2.313,-1.017 3.549,-1.606 -1.444,-5.81 -2.827,-11.957 -4.162,-18.45 -1.334,-6.492 -2.521,-13.806 -3.537,-21.94 -0.208,-2.136 -0.819,-3.488 -1.848,-4.066 -1.028,-0.589 -2.264,-0.878 -3.696,-0.878 -3.488,0 -7.846,0.242 -13.085,0.728 -5.238,0.485 -9.803,0.728 -13.708,0.728 h -76.962 c -4.725,0 -10.673,-0.15 -17.858,-0.439 -7.184,-0.289 -14.063,-0.624 -20.636,-1.017 -0.404,1.941 -0.612,3.489 -0.612,4.656 0,2.703 1.028,4.251 3.085,4.644 8.408,1.352 14.161,2.854 17.233,4.506 3.084,1.64 4.626,4.217 4.626,7.706 v 148.214 c 0,3.87 -1.444,6.631 -4.32,8.283 -2.876,1.641 -8.409,3.05 -16.621,4.205 -1.029,0.197 -1.8,0.728 -2.314,1.606 -0.514,0.867 -0.759,1.884 -0.759,3.05 0,1.352 0.196,3.004 0.612,4.934 6.977,-0.382 13.856,-0.717 20.624,-1.017 6.781,-0.289 12.521,-0.428 17.246,-0.428 6.976,0 14.369,0.139 22.166,0.428 7.796,0.3 14.785,0.635 20.942,1.017 0.403,-1.93 0.611,-3.478 0.611,-4.645 0,-3.292 -1.126,-5.037 -3.39,-5.233 C 17.038,158.577 10.514,157.179 6.315,155.331 2.105,153.494 0,150.155 0,145.314 Z"
         inkscape:connector-curvature="0" /></g><g
       transform="translate(848.9316,261.4873)"
       id="g28"><path
         id="path30"
         style="fill:#231f20;fill-opacity:1;fill-rule:nonzero;stroke:none"
         d="m 0,0 v 120.194 c 0,4.219 -1.64,7.191 -4.92,8.917 -3.292,1.726 -8.837,3.064 -16.634,4.024 -2.252,0.195 -3.378,1.818 -3.378,4.893 0,1.155 0.197,2.687 0.613,4.596 5.128,-0.377 10.366,-0.709 15.703,-1.006 5.337,-0.286 10.354,-0.423 15.079,-0.423 4.516,0 9.241,0.137 14.174,0.423 4.92,0.297 9.742,0.629 14.467,1.006 0.404,-1.909 0.612,-3.441 0.612,-4.596 0,-3.075 -1.028,-4.698 -3.072,-4.893 -6.99,-0.96 -11.763,-2.298 -14.321,-4.024 -2.57,-1.726 -3.855,-4.504 -3.855,-8.334 V -48.608 c -0.405,-0.183 -1.126,-0.331 -2.155,-0.423 -1.028,-0.103 -1.847,-0.149 -2.459,-0.149 -1.433,0 -2.767,0.343 -4.003,1.006 -1.236,0.675 -2.668,2.07 -4.308,4.173 l -125.004,153.85 V -25.596 c 0,-3.841 1.433,-6.516 4.309,-8.048 2.876,-1.544 8.421,-2.984 16.633,-4.321 2.044,-0.389 3.073,-1.921 3.073,-4.596 0,-1.154 -0.208,-2.686 -0.613,-4.607 -5.14,0.389 -10.317,0.721 -15.544,1.006 -5.238,0.286 -10.122,0.434 -14.626,0.434 -4.113,0 -8.935,-0.148 -14.48,-0.434 -5.532,-0.285 -10.574,-0.617 -15.079,-1.006 -0.416,1.921 -0.611,3.453 -0.611,4.607 0,2.675 1.113,4.207 3.378,4.596 7.392,1.337 12.362,2.777 14.932,4.321 2.57,1.532 3.856,4.207 3.856,8.048 v 147.803 c 0,3.063 -1.188,5.418 -3.55,7.053 -2.363,1.623 -7.234,2.915 -14.614,3.875 -2.265,0.389 -3.391,2.012 -3.391,4.893 0,0.96 0.099,1.818 0.307,2.584 0,0.583 0.097,1.246 0.305,2.012 4.101,-0.377 8.005,-0.675 11.701,-0.857 3.281,-0.195 6.769,-0.344 10.465,-0.435 3.697,-0.091 6.977,-0.137 9.853,-0.137 5.949,0 9.902,-0.195 11.86,-0.583 1.946,-0.378 3.537,-1.338 4.774,-2.87 z"
         inkscape:connector-curvature="0" /></g><g
       transform="translate(1023.5742,212.3076)"
       id="g32"><path
         id="path34"
         style="fill:#231f20;fill-opacity:1;fill-rule:nonzero;stroke:none"
         d="m 0,0 c -17.246,0 -32.337,2.466 -45.263,7.398 -12.936,4.933 -23.659,11.71 -32.177,20.353 -8.519,8.632 -14.883,18.78 -19.081,30.444 -4.211,11.675 -6.316,24.233 -6.316,37.706 0,11.201 2.105,22.492 6.316,33.872 4.198,11.381 10.562,21.665 19.081,30.874 8.518,9.198 19.241,16.698 32.177,22.479 12.926,5.792 28.017,8.678 45.263,8.678 6.769,0 12.974,-0.136 18.629,-0.419 5.642,-0.283 11.027,-0.758 16.156,-1.426 5.128,-0.667 10.158,-1.516 15.091,-2.556 4.921,-1.052 10.049,-2.24 15.397,-3.564 0.197,-5.125 0.918,-11.381 2.155,-18.779 1.224,-7.4 2.864,-14.9 4.921,-22.48 -1.641,-0.758 -3.281,-1.143 -4.921,-1.143 -1.653,0 -3.133,0.193 -4.467,0.566 -1.335,0.385 -2.216,1.426 -2.62,3.134 -3.696,12.523 -9.547,21.438 -17.551,26.755 -8.005,5.306 -19.596,7.965 -34.785,7.965 -12.73,0 -23.966,-1.901 -33.721,-5.691 -9.742,-3.801 -17.955,-9.106 -24.626,-15.94 -6.671,-6.822 -11.701,-15.036 -15.092,-24.618 -3.378,-9.582 -5.079,-20.25 -5.079,-32.016 0,-13.089 2.155,-25.138 6.463,-36.134 4.321,-11.008 10.11,-20.488 17.404,-28.464 7.284,-7.965 15.802,-14.13 25.557,-18.497 9.742,-4.367 20.158,-6.539 31.248,-6.539 8.824,0 16.266,0.804 22.324,2.41 6.047,1.617 11.078,3.937 15.08,6.98 4.002,3.032 7.393,6.777 10.159,11.234 2.778,4.457 5.385,9.537 7.858,15.228 1.432,2.85 3.892,4.264 7.38,4.264 1.028,0 2.105,-0.136 3.231,-0.418 1.126,-0.283 2.008,-0.622 2.62,-0.996 -2.46,-6.652 -4.92,-13.949 -7.38,-21.913 C 68.958,20.771 66.914,12.807 65.273,4.842 55.213,3.326 44.943,2.139 34.479,1.278 24.014,0.43 12.509,0 0,0"
         inkscape:connector-curvature="0" /></g><g
       transform="translate(579.0601,293.9756)"
       id="g36"><path
         id="path38"
         style="fill:#231f20;fill-opacity:1;fill-rule:nonzero;stroke:none"
         d="M 0,0 C -6.506,4.988 -16.354,8.221 -27.934,8.221 -39.513,8.221 -50.178,4.988 -56.685,0 h -0.819 L -27.73,70.452 0.82,0 Z m -82.37,-58.087 c 14.778,30.561 25.078,49.549 54.582,49.514 29.94,-0.035 38.593,-19.885 52.855,-50.664 0.818,-1.726 1.229,-3.164 1.229,-4.315 0,-2.491 -1.639,-4.361 -4.913,-5.605 -3.274,-1.25 -7.572,-2.351 -12.891,-3.308 -0.614,0 -1.282,-0.337 -1.996,-1.006 -0.717,-0.675 -1.075,-1.87 -1.075,-3.595 0,-1.151 0.204,-2.686 0.615,-4.602 5.933,0.388 12.588,0.719 19.953,1.007 7.368,0.287 13.916,0.432 19.646,0.432 5.526,0 11.46,-0.145 17.803,-0.432 6.341,-0.288 12.789,-0.619 19.339,-1.007 0.411,1.916 0.615,3.451 0.615,4.602 0,1.725 -0.357,2.92 -1.075,3.595 -0.717,0.669 -1.689,1.194 -2.913,1.582 -4.099,0.576 -8.29,1.625 -12.588,3.163 -4.298,1.533 -7.058,3.639 -8.286,6.325 L -15.76,109.56 c -1.638,0.381 -2.866,0.576 -3.68,0.576 -2.456,0 -4.406,-1.633 -5.834,-4.89 L -99.252,-61.538 c -1.436,-3.067 -3.738,-5.317 -6.909,-6.756 -3.173,-1.438 -7.932,-2.639 -14.273,-3.595 -1.642,-0.194 -2.716,-0.769 -3.223,-1.726 -0.514,-0.963 -0.768,-2.114 -0.768,-3.451 0,-1.536 0.2,-3.071 0.614,-4.602 4.706,0.575 9.207,0.963 13.506,1.15 4.298,0.195 8.489,0.289 12.588,0.289 5.929,0 11.97,-0.145 18.111,-0.432 6.137,-0.288 11.97,-0.619 17.497,-1.007 0.406,1.916 0.613,3.451 0.613,4.602 0,1.15 -0.26,2.157 -0.767,3.02 -0.514,0.862 -1.489,1.388 -2.917,1.581 -12.484,1.727 -18.725,4.603 -18.725,8.625 0,1.532 0.507,3.452 1.535,5.753"
         inkscape:connector-curvature="0" /></g><g
       transform="translate(185.8618,328.3984)"
       id="g40"><path
         id="path42"
         style="fill:#171616;fill-opacity:1;fill-rule:nonzero;stroke:none"
         d="m 0,0 c -0.398,19.111 -2.386,29.563 -7.551,40.021 -8.741,17.665 -22.248,26.681 -40.927,26.681 -19.076,0 -34.969,-9.734 -45.698,-28.123 C -100.138,28.122 -102.519,18.75 -104.904,0 Z m -105.702,-9.734 c 0.399,-24.877 2.785,-39.298 9.14,-54.08 11.526,-26.681 30.996,-39.66 59.61,-39.66 28.211,0 49.668,13.341 65.562,40.74 l 9.14,-4.686 c -17.881,-33.171 -44.902,-48.671 -83.842,-48.671 -56.825,0 -95.77,38.213 -95.77,93.378 0,58.409 38.148,98.426 94.176,98.426 36.166,0 63.58,-16.586 75.902,-45.787 3.97,-9.735 5.564,-18.389 6.356,-39.66 z"
         inkscape:connector-curvature="0" /></g><g
       transform="translate(191.4976,489.3774)"
       id="g44"><path
         id="path46"
         style="fill:#171616;fill-opacity:1;fill-rule:nonzero;stroke:none"
         d="m 0,0 -61.92,-61.146 c -1.334,-1 -1.634,-2.932 -0.67,-4.314 0.965,-1.383 2.827,-1.694 4.161,-0.694 l 75.337,42.055 c 1.202,0.473 2.365,1.111 3.456,1.929 6.67,4.999 8.168,14.655 3.347,21.57 C 18.89,6.314 9.575,7.868 2.906,2.87 1.789,2.033 0.821,1.063 0,0"
         inkscape:connector-curvature="0" /></g><g
       transform="translate(1285.251,328.3984)"
       id="g48"><path
         id="path50"
         style="fill:#171616;fill-opacity:1;fill-rule:nonzero;stroke:none"
         d="m 0,0 c -0.398,19.111 -2.386,29.563 -7.551,40.021 -8.741,17.665 -22.249,26.681 -40.927,26.681 -19.076,0 -34.969,-9.734 -45.698,-28.123 C -100.139,28.122 -102.519,18.75 -104.905,0 Z m -105.702,-9.734 c 0.398,-24.877 2.785,-39.298 9.139,-54.08 11.527,-26.681 30.997,-39.66 59.611,-39.66 28.211,0 49.668,13.341 65.561,40.74 l 9.14,-4.686 c -17.881,-33.171 -44.901,-48.671 -83.841,-48.671 -56.825,0 -95.77,38.213 -95.77,93.378 0,58.409 38.147,98.426 94.176,98.426 36.165,0 63.58,-16.586 75.902,-45.787 3.97,-9.735 5.563,-18.389 6.355,-39.66 z"
         inkscape:connector-curvature="0" /></g></g></g></g></svg>